<mxfile host="app.diagrams.net" modified="2022-02-17T10:31:15.650Z" agent="5.0 (Macintosh; Intel Mac OS X 10_15_7) AppleWebKit/537.36 (KHTML, like Gecko) Chrome/98.0.4758.87 Safari/537.36" etag="XiiCNmugL7_KSiIjeNxx" version="16.4.7" type="github">
  <diagram id="5a92VEiot6wHaP7GvSwB" name="Page-1">
    <mxGraphModel dx="1186" dy="668" grid="0" gridSize="10" guides="1" tooltips="1" connect="1" arrows="1" fold="1" page="1" pageScale="1" pageWidth="10000" pageHeight="20000" math="0" shadow="0">
      <root>
        <mxCell id="0" />
        <mxCell id="1" parent="0" />
        <mxCell id="n7T-FIlEDTp39AW6R5KJ-52" value="" style="rounded=0;whiteSpace=wrap;html=1;strokeWidth=1;fillColor=#f5f5f5;strokeColor=#666666;fontColor=#333333;" vertex="1" parent="1">
          <mxGeometry x="707" y="647" width="399" height="177" as="geometry" />
        </mxCell>
        <mxCell id="n7T-FIlEDTp39AW6R5KJ-28" value="" style="rounded=0;whiteSpace=wrap;html=1;strokeWidth=1;" vertex="1" parent="1">
          <mxGeometry x="633" y="99" width="453" height="51" as="geometry" />
        </mxCell>
        <mxCell id="n7T-FIlEDTp39AW6R5KJ-1" value="客户端" style="shape=umlLifeline;perimeter=lifelinePerimeter;whiteSpace=wrap;html=1;container=1;collapsible=0;recursiveResize=0;outlineConnect=0;" vertex="1" parent="1">
          <mxGeometry x="170" y="107" width="100" height="300" as="geometry" />
        </mxCell>
        <mxCell id="n7T-FIlEDTp39AW6R5KJ-8" value="" style="html=1;points=[];perimeter=orthogonalPerimeter;" vertex="1" parent="n7T-FIlEDTp39AW6R5KJ-1">
          <mxGeometry x="44" y="81" width="10" height="194" as="geometry" />
        </mxCell>
        <mxCell id="n7T-FIlEDTp39AW6R5KJ-16" value="" style="html=1;verticalAlign=bottom;endArrow=block;rounded=0;" edge="1" parent="n7T-FIlEDTp39AW6R5KJ-1">
          <mxGeometry width="80" relative="1" as="geometry">
            <mxPoint x="56" y="81" as="sourcePoint" />
            <mxPoint x="200" y="81" as="targetPoint" />
          </mxGeometry>
        </mxCell>
        <mxCell id="n7T-FIlEDTp39AW6R5KJ-17" value="" style="html=1;verticalAlign=bottom;endArrow=open;dashed=1;endSize=8;rounded=0;" edge="1" parent="n7T-FIlEDTp39AW6R5KJ-1">
          <mxGeometry relative="1" as="geometry">
            <mxPoint x="198" y="267" as="sourcePoint" />
            <mxPoint x="49.5" y="267" as="targetPoint" />
            <Array as="points">
              <mxPoint x="118" y="267" />
            </Array>
          </mxGeometry>
        </mxCell>
        <mxCell id="n7T-FIlEDTp39AW6R5KJ-2" value="dubbo provider&lt;br&gt;线程池" style="shape=umlLifeline;perimeter=lifelinePerimeter;whiteSpace=wrap;html=1;container=1;collapsible=0;recursiveResize=0;outlineConnect=0;" vertex="1" parent="1">
          <mxGeometry x="465" y="105" width="100" height="300" as="geometry" />
        </mxCell>
        <mxCell id="n7T-FIlEDTp39AW6R5KJ-9" value="" style="html=1;points=[];perimeter=orthogonalPerimeter;" vertex="1" parent="n7T-FIlEDTp39AW6R5KJ-2">
          <mxGeometry x="45" y="112" width="10" height="127" as="geometry" />
        </mxCell>
        <mxCell id="n7T-FIlEDTp39AW6R5KJ-33" value="" style="shape=curlyBracket;whiteSpace=wrap;html=1;rounded=1;strokeWidth=1;" vertex="1" parent="n7T-FIlEDTp39AW6R5KJ-2">
          <mxGeometry x="21" y="117" width="20" height="109" as="geometry" />
        </mxCell>
        <mxCell id="n7T-FIlEDTp39AW6R5KJ-35" value="耗时t3" style="text;html=1;strokeColor=none;fillColor=none;align=center;verticalAlign=middle;whiteSpace=wrap;rounded=0;" vertex="1" parent="n7T-FIlEDTp39AW6R5KJ-2">
          <mxGeometry x="-32" y="156.5" width="60" height="30" as="geometry" />
        </mxCell>
        <mxCell id="n7T-FIlEDTp39AW6R5KJ-5" value="业务线程3" style="shape=umlLifeline;perimeter=lifelinePerimeter;whiteSpace=wrap;html=1;container=1;collapsible=0;recursiveResize=0;outlineConnect=0;fillColor=#f5f5f5;fontColor=#333333;strokeColor=#666666;" vertex="1" parent="1">
          <mxGeometry x="805" y="105" width="58" height="299" as="geometry" />
        </mxCell>
        <mxCell id="n7T-FIlEDTp39AW6R5KJ-41" value="" style="rounded=0;whiteSpace=wrap;html=1;strokeWidth=1;fillColor=#f5f5f5;strokeColor=#666666;fontColor=#333333;" vertex="1" parent="n7T-FIlEDTp39AW6R5KJ-5">
          <mxGeometry x="-94" y="109" width="251" height="129" as="geometry" />
        </mxCell>
        <mxCell id="n7T-FIlEDTp39AW6R5KJ-24" value="" style="html=1;points=[];perimeter=orthogonalPerimeter;strokeWidth=1;" vertex="1" parent="n7T-FIlEDTp39AW6R5KJ-5">
          <mxGeometry x="24" y="110" width="10" height="81" as="geometry" />
        </mxCell>
        <mxCell id="n7T-FIlEDTp39AW6R5KJ-6" value="业务线程4" style="shape=umlLifeline;perimeter=lifelinePerimeter;whiteSpace=wrap;html=1;container=1;collapsible=0;recursiveResize=0;outlineConnect=0;fillColor=#f5f5f5;fontColor=#333333;strokeColor=#666666;" vertex="1" parent="1">
          <mxGeometry x="863" y="105" width="57" height="299" as="geometry" />
        </mxCell>
        <mxCell id="n7T-FIlEDTp39AW6R5KJ-25" value="" style="html=1;points=[];perimeter=orthogonalPerimeter;strokeWidth=1;" vertex="1" parent="n7T-FIlEDTp39AW6R5KJ-6">
          <mxGeometry x="23.5" y="110" width="10" height="124" as="geometry" />
        </mxCell>
        <mxCell id="n7T-FIlEDTp39AW6R5KJ-7" value="业务线程5" style="shape=umlLifeline;perimeter=lifelinePerimeter;whiteSpace=wrap;html=1;container=1;collapsible=0;recursiveResize=0;outlineConnect=0;fillColor=#f5f5f5;fontColor=#333333;strokeColor=#666666;" vertex="1" parent="1">
          <mxGeometry x="922" y="105" width="57" height="299" as="geometry" />
        </mxCell>
        <mxCell id="n7T-FIlEDTp39AW6R5KJ-26" value="" style="html=1;points=[];perimeter=orthogonalPerimeter;strokeWidth=1;" vertex="1" parent="n7T-FIlEDTp39AW6R5KJ-7">
          <mxGeometry x="23.5" y="110.5" width="10" height="108" as="geometry" />
        </mxCell>
        <mxCell id="n7T-FIlEDTp39AW6R5KJ-10" value="" style="html=1;verticalAlign=bottom;endArrow=block;entryX=0;entryY=0;rounded=0;" edge="1" target="n7T-FIlEDTp39AW6R5KJ-9" parent="1">
          <mxGeometry relative="1" as="geometry">
            <mxPoint x="368" y="217" as="sourcePoint" />
          </mxGeometry>
        </mxCell>
        <mxCell id="n7T-FIlEDTp39AW6R5KJ-11" value="" style="html=1;verticalAlign=bottom;endArrow=open;dashed=1;endSize=8;exitX=0;exitY=0.95;rounded=0;" edge="1" source="n7T-FIlEDTp39AW6R5KJ-9" parent="1">
          <mxGeometry relative="1" as="geometry">
            <mxPoint x="363" y="338" as="targetPoint" />
          </mxGeometry>
        </mxCell>
        <mxCell id="n7T-FIlEDTp39AW6R5KJ-14" value="" style="html=1;verticalAlign=bottom;endArrow=open;dashed=1;endSize=8;rounded=0;" edge="1" parent="1" target="n7T-FIlEDTp39AW6R5KJ-2">
          <mxGeometry relative="1" as="geometry">
            <mxPoint x="642" y="297" as="targetPoint" />
            <mxPoint x="683" y="334" as="sourcePoint" />
          </mxGeometry>
        </mxCell>
        <mxCell id="n7T-FIlEDTp39AW6R5KJ-13" value="" style="html=1;verticalAlign=bottom;endArrow=block;rounded=0;" edge="1" parent="1" source="n7T-FIlEDTp39AW6R5KJ-2">
          <mxGeometry relative="1" as="geometry">
            <mxPoint x="642" y="221" as="sourcePoint" />
            <mxPoint x="685" y="215" as="targetPoint" />
          </mxGeometry>
        </mxCell>
        <mxCell id="n7T-FIlEDTp39AW6R5KJ-20" value="" style="line;strokeWidth=1;direction=south;html=1;perimeter=backbonePerimeter;points=[];outlineConnect=0;dashed=1;" vertex="1" parent="1">
          <mxGeometry x="361" y="194" width="10" height="21" as="geometry" />
        </mxCell>
        <mxCell id="n7T-FIlEDTp39AW6R5KJ-21" value="" style="line;strokeWidth=1;direction=south;html=1;perimeter=backbonePerimeter;points=[];outlineConnect=0;dashed=1;" vertex="1" parent="1">
          <mxGeometry x="361" y="345" width="10" height="28" as="geometry" />
        </mxCell>
        <mxCell id="n7T-FIlEDTp39AW6R5KJ-22" value="网络传输耗时t1" style="text;html=1;strokeColor=none;fillColor=none;align=center;verticalAlign=middle;whiteSpace=wrap;rounded=0;dashed=1;" vertex="1" parent="1">
          <mxGeometry x="324" y="189.5" width="84" height="30" as="geometry" />
        </mxCell>
        <mxCell id="n7T-FIlEDTp39AW6R5KJ-23" value="网络传输耗时t2" style="text;html=1;strokeColor=none;fillColor=none;align=center;verticalAlign=middle;whiteSpace=wrap;rounded=0;dashed=1;" vertex="1" parent="1">
          <mxGeometry x="327" y="343" width="84" height="30" as="geometry" />
        </mxCell>
        <mxCell id="n7T-FIlEDTp39AW6R5KJ-29" value="业务线程6" style="shape=umlLifeline;perimeter=lifelinePerimeter;whiteSpace=wrap;html=1;container=1;collapsible=0;recursiveResize=0;outlineConnect=0;fillColor=#f5f5f5;fontColor=#333333;strokeColor=#666666;" vertex="1" parent="1">
          <mxGeometry x="979" y="105" width="57" height="299" as="geometry" />
        </mxCell>
        <mxCell id="n7T-FIlEDTp39AW6R5KJ-31" value="......" style="text;html=1;strokeColor=none;fillColor=none;align=center;verticalAlign=middle;whiteSpace=wrap;rounded=0;" vertex="1" parent="1">
          <mxGeometry x="1030" y="107" width="60" height="30" as="geometry" />
        </mxCell>
        <mxCell id="n7T-FIlEDTp39AW6R5KJ-32" value="业务&lt;br&gt;线程池" style="text;html=1;strokeColor=none;fillColor=none;align=center;verticalAlign=middle;whiteSpace=wrap;rounded=0;" vertex="1" parent="1">
          <mxGeometry x="631" y="109.5" width="62" height="30" as="geometry" />
        </mxCell>
        <mxCell id="n7T-FIlEDTp39AW6R5KJ-38" value="耗时t4" style="text;html=1;strokeColor=none;fillColor=none;align=center;verticalAlign=middle;whiteSpace=wrap;rounded=0;" vertex="1" parent="1">
          <mxGeometry x="633" y="264" width="60" height="30" as="geometry" />
        </mxCell>
        <mxCell id="n7T-FIlEDTp39AW6R5KJ-4" value="业务线程2" style="shape=umlLifeline;perimeter=lifelinePerimeter;whiteSpace=wrap;html=1;container=1;collapsible=0;recursiveResize=0;outlineConnect=0;fillColor=#f5f5f5;fontColor=#333333;strokeColor=#666666;" vertex="1" parent="1">
          <mxGeometry x="747" y="105" width="59" height="300" as="geometry" />
        </mxCell>
        <mxCell id="n7T-FIlEDTp39AW6R5KJ-15" value="" style="html=1;points=[];perimeter=orthogonalPerimeter;" vertex="1" parent="n7T-FIlEDTp39AW6R5KJ-4">
          <mxGeometry x="23.5" y="110" width="10" height="112" as="geometry" />
        </mxCell>
        <mxCell id="n7T-FIlEDTp39AW6R5KJ-3" value="业务线程1" style="shape=umlLifeline;perimeter=lifelinePerimeter;whiteSpace=wrap;html=1;container=1;collapsible=0;recursiveResize=0;outlineConnect=0;fillColor=#f5f5f5;strokeColor=#666666;fontColor=#333333;" vertex="1" parent="1">
          <mxGeometry x="690" y="105" width="57" height="299" as="geometry" />
        </mxCell>
        <mxCell id="n7T-FIlEDTp39AW6R5KJ-12" value="" style="html=1;points=[];perimeter=orthogonalPerimeter;" vertex="1" parent="n7T-FIlEDTp39AW6R5KJ-3">
          <mxGeometry x="24" y="111" width="10" height="126" as="geometry" />
        </mxCell>
        <mxCell id="n7T-FIlEDTp39AW6R5KJ-39" value="" style="shape=curlyBracket;whiteSpace=wrap;html=1;rounded=1;strokeWidth=1;" vertex="1" parent="n7T-FIlEDTp39AW6R5KJ-3">
          <mxGeometry x="-2" y="114" width="20" height="115" as="geometry" />
        </mxCell>
        <mxCell id="n7T-FIlEDTp39AW6R5KJ-42" value="" style="rounded=0;whiteSpace=wrap;html=1;strokeWidth=1;" vertex="1" parent="1">
          <mxGeometry x="627" y="531" width="503" height="51" as="geometry" />
        </mxCell>
        <mxCell id="n7T-FIlEDTp39AW6R5KJ-43" value="客户端" style="shape=umlLifeline;perimeter=lifelinePerimeter;whiteSpace=wrap;html=1;container=1;collapsible=0;recursiveResize=0;outlineConnect=0;" vertex="1" parent="1">
          <mxGeometry x="164" y="539" width="100" height="357" as="geometry" />
        </mxCell>
        <mxCell id="n7T-FIlEDTp39AW6R5KJ-44" value="" style="html=1;points=[];perimeter=orthogonalPerimeter;" vertex="1" parent="n7T-FIlEDTp39AW6R5KJ-43">
          <mxGeometry x="44" y="81" width="10" height="194" as="geometry" />
        </mxCell>
        <mxCell id="n7T-FIlEDTp39AW6R5KJ-45" value="" style="html=1;verticalAlign=bottom;endArrow=block;rounded=0;" edge="1" parent="n7T-FIlEDTp39AW6R5KJ-43">
          <mxGeometry width="80" relative="1" as="geometry">
            <mxPoint x="56" y="81" as="sourcePoint" />
            <mxPoint x="200" y="81" as="targetPoint" />
          </mxGeometry>
        </mxCell>
        <mxCell id="n7T-FIlEDTp39AW6R5KJ-82" value="第一次请求" style="edgeLabel;html=1;align=center;verticalAlign=middle;resizable=0;points=[];" vertex="1" connectable="0" parent="n7T-FIlEDTp39AW6R5KJ-45">
          <mxGeometry x="-0.1806" y="3" relative="1" as="geometry">
            <mxPoint as="offset" />
          </mxGeometry>
        </mxCell>
        <mxCell id="n7T-FIlEDTp39AW6R5KJ-81" value="" style="html=1;points=[];perimeter=orthogonalPerimeter;strokeWidth=1;fillColor=#fa6800;fontColor=#000000;strokeColor=#C73500;" vertex="1" parent="n7T-FIlEDTp39AW6R5KJ-43">
          <mxGeometry x="27" y="277" width="10" height="80" as="geometry" />
        </mxCell>
        <mxCell id="n7T-FIlEDTp39AW6R5KJ-47" value="dubbo provider&lt;br&gt;线程池" style="shape=umlLifeline;perimeter=lifelinePerimeter;whiteSpace=wrap;html=1;container=1;collapsible=0;recursiveResize=0;outlineConnect=0;" vertex="1" parent="1">
          <mxGeometry x="459" y="537" width="100" height="300" as="geometry" />
        </mxCell>
        <mxCell id="n7T-FIlEDTp39AW6R5KJ-48" value="" style="html=1;points=[];perimeter=orthogonalPerimeter;" vertex="1" parent="n7T-FIlEDTp39AW6R5KJ-47">
          <mxGeometry x="45" y="112" width="10" height="162" as="geometry" />
        </mxCell>
        <mxCell id="n7T-FIlEDTp39AW6R5KJ-49" value="" style="shape=curlyBracket;whiteSpace=wrap;html=1;rounded=1;strokeWidth=1;" vertex="1" parent="n7T-FIlEDTp39AW6R5KJ-47">
          <mxGeometry x="21" y="117" width="20" height="146" as="geometry" />
        </mxCell>
        <mxCell id="n7T-FIlEDTp39AW6R5KJ-51" value="业务线程3" style="shape=umlLifeline;perimeter=lifelinePerimeter;whiteSpace=wrap;html=1;container=1;collapsible=0;recursiveResize=0;outlineConnect=0;fillColor=#f5f5f5;fontColor=#333333;strokeColor=#666666;" vertex="1" parent="1">
          <mxGeometry x="799" y="537" width="59" height="299" as="geometry" />
        </mxCell>
        <mxCell id="n7T-FIlEDTp39AW6R5KJ-53" value="" style="html=1;points=[];perimeter=orthogonalPerimeter;strokeWidth=1;" vertex="1" parent="n7T-FIlEDTp39AW6R5KJ-51">
          <mxGeometry x="24" y="111" width="10" height="120" as="geometry" />
        </mxCell>
        <mxCell id="n7T-FIlEDTp39AW6R5KJ-54" value="业务线程4" style="shape=umlLifeline;perimeter=lifelinePerimeter;whiteSpace=wrap;html=1;container=1;collapsible=0;recursiveResize=0;outlineConnect=0;fillColor=#f5f5f5;fontColor=#333333;strokeColor=#666666;" vertex="1" parent="1">
          <mxGeometry x="857" y="537" width="57" height="299" as="geometry" />
        </mxCell>
        <mxCell id="n7T-FIlEDTp39AW6R5KJ-55" value="" style="html=1;points=[];perimeter=orthogonalPerimeter;strokeWidth=1;" vertex="1" parent="n7T-FIlEDTp39AW6R5KJ-54">
          <mxGeometry x="23.5" y="111" width="10" height="109" as="geometry" />
        </mxCell>
        <mxCell id="n7T-FIlEDTp39AW6R5KJ-56" value="业务线程5" style="shape=umlLifeline;perimeter=lifelinePerimeter;whiteSpace=wrap;html=1;container=1;collapsible=0;recursiveResize=0;outlineConnect=0;fillColor=#f5f5f5;fontColor=#333333;strokeColor=#666666;" vertex="1" parent="1">
          <mxGeometry x="916" y="537" width="57" height="299" as="geometry" />
        </mxCell>
        <mxCell id="n7T-FIlEDTp39AW6R5KJ-58" value="" style="html=1;verticalAlign=bottom;endArrow=block;entryX=0;entryY=0;rounded=0;" edge="1" parent="1" target="n7T-FIlEDTp39AW6R5KJ-48">
          <mxGeometry relative="1" as="geometry">
            <mxPoint x="362" y="649" as="sourcePoint" />
          </mxGeometry>
        </mxCell>
        <mxCell id="n7T-FIlEDTp39AW6R5KJ-59" value="" style="html=1;verticalAlign=bottom;endArrow=open;dashed=1;endSize=8;exitX=0;exitY=0.95;rounded=0;" edge="1" parent="1" source="n7T-FIlEDTp39AW6R5KJ-48" target="n7T-FIlEDTp39AW6R5KJ-63">
          <mxGeometry relative="1" as="geometry">
            <mxPoint x="357" y="770" as="targetPoint" />
          </mxGeometry>
        </mxCell>
        <mxCell id="n7T-FIlEDTp39AW6R5KJ-60" value="" style="html=1;verticalAlign=bottom;endArrow=open;dashed=1;endSize=8;rounded=0;" edge="1" parent="1">
          <mxGeometry relative="1" as="geometry">
            <mxPoint x="508.5" y="807" as="targetPoint" />
            <mxPoint x="677" y="807" as="sourcePoint" />
          </mxGeometry>
        </mxCell>
        <mxCell id="n7T-FIlEDTp39AW6R5KJ-61" value="" style="html=1;verticalAlign=bottom;endArrow=block;rounded=0;" edge="1" parent="1" source="n7T-FIlEDTp39AW6R5KJ-47">
          <mxGeometry relative="1" as="geometry">
            <mxPoint x="636" y="653" as="sourcePoint" />
            <mxPoint x="679" y="647" as="targetPoint" />
          </mxGeometry>
        </mxCell>
        <mxCell id="n7T-FIlEDTp39AW6R5KJ-62" value="" style="line;strokeWidth=1;direction=south;html=1;perimeter=backbonePerimeter;points=[];outlineConnect=0;dashed=1;" vertex="1" parent="1">
          <mxGeometry x="355" y="626" width="10" height="21" as="geometry" />
        </mxCell>
        <mxCell id="n7T-FIlEDTp39AW6R5KJ-63" value="" style="line;strokeWidth=1;direction=south;html=1;perimeter=backbonePerimeter;points=[];outlineConnect=0;dashed=1;" vertex="1" parent="1">
          <mxGeometry x="355" y="805" width="10" height="28" as="geometry" />
        </mxCell>
        <mxCell id="n7T-FIlEDTp39AW6R5KJ-64" value="网络传输耗时t1" style="text;html=1;strokeColor=none;fillColor=none;align=center;verticalAlign=middle;whiteSpace=wrap;rounded=0;dashed=1;" vertex="1" parent="1">
          <mxGeometry x="318" y="621.5" width="84" height="30" as="geometry" />
        </mxCell>
        <mxCell id="n7T-FIlEDTp39AW6R5KJ-65" value="网络传输耗时t2" style="text;html=1;strokeColor=none;fillColor=none;align=center;verticalAlign=middle;whiteSpace=wrap;rounded=0;dashed=1;" vertex="1" parent="1">
          <mxGeometry x="321" y="809" width="84" height="30" as="geometry" />
        </mxCell>
        <mxCell id="n7T-FIlEDTp39AW6R5KJ-66" value="业务线程6" style="shape=umlLifeline;perimeter=lifelinePerimeter;whiteSpace=wrap;html=1;container=1;collapsible=0;recursiveResize=0;outlineConnect=0;fillColor=#f5f5f5;fontColor=#333333;strokeColor=#666666;" vertex="1" parent="1">
          <mxGeometry x="973" y="536" width="58" height="300" as="geometry" />
        </mxCell>
        <mxCell id="n7T-FIlEDTp39AW6R5KJ-77" value="" style="html=1;points=[];perimeter=orthogonalPerimeter;strokeWidth=1;fillColor=#e51400;fontColor=#ffffff;strokeColor=#B20000;" vertex="1" parent="n7T-FIlEDTp39AW6R5KJ-66">
          <mxGeometry x="26" y="181" width="10" height="105" as="geometry" />
        </mxCell>
        <mxCell id="n7T-FIlEDTp39AW6R5KJ-80" value="分配线程" style="html=1;verticalAlign=bottom;endArrow=open;dashed=1;endSize=8;rounded=0;" edge="1" parent="n7T-FIlEDTp39AW6R5KJ-66">
          <mxGeometry relative="1" as="geometry">
            <mxPoint x="119" y="183" as="sourcePoint" />
            <mxPoint x="39" y="183" as="targetPoint" />
          </mxGeometry>
        </mxCell>
        <mxCell id="n7T-FIlEDTp39AW6R5KJ-67" value="......" style="text;html=1;strokeColor=none;fillColor=none;align=center;verticalAlign=middle;whiteSpace=wrap;rounded=0;" vertex="1" parent="1">
          <mxGeometry x="1024" y="539" width="60" height="30" as="geometry" />
        </mxCell>
        <mxCell id="n7T-FIlEDTp39AW6R5KJ-68" value="业务&lt;br&gt;线程池" style="text;html=1;strokeColor=none;fillColor=none;align=center;verticalAlign=middle;whiteSpace=wrap;rounded=0;" vertex="1" parent="1">
          <mxGeometry x="625" y="541.5" width="62" height="30" as="geometry" />
        </mxCell>
        <mxCell id="n7T-FIlEDTp39AW6R5KJ-69" value="耗时t4" style="text;html=1;strokeColor=none;fillColor=none;align=center;verticalAlign=middle;whiteSpace=wrap;rounded=0;" vertex="1" parent="1">
          <mxGeometry x="627" y="696" width="60" height="30" as="geometry" />
        </mxCell>
        <mxCell id="n7T-FIlEDTp39AW6R5KJ-70" value="业务线程2" style="shape=umlLifeline;perimeter=lifelinePerimeter;whiteSpace=wrap;html=1;container=1;collapsible=0;recursiveResize=0;outlineConnect=0;fillColor=#f5f5f5;fontColor=#333333;strokeColor=#666666;" vertex="1" parent="1">
          <mxGeometry x="741" y="537" width="59" height="300" as="geometry" />
        </mxCell>
        <mxCell id="n7T-FIlEDTp39AW6R5KJ-71" value="" style="html=1;points=[];perimeter=orthogonalPerimeter;" vertex="1" parent="n7T-FIlEDTp39AW6R5KJ-70">
          <mxGeometry x="23.5" y="111" width="10" height="76" as="geometry" />
        </mxCell>
        <mxCell id="n7T-FIlEDTp39AW6R5KJ-72" value="业务线程1" style="shape=umlLifeline;perimeter=lifelinePerimeter;whiteSpace=wrap;html=1;container=1;collapsible=0;recursiveResize=0;outlineConnect=0;fillColor=#f5f5f5;strokeColor=#666666;fontColor=#333333;" vertex="1" parent="1">
          <mxGeometry x="684" y="537" width="57" height="299" as="geometry" />
        </mxCell>
        <mxCell id="n7T-FIlEDTp39AW6R5KJ-73" value="" style="html=1;points=[];perimeter=orthogonalPerimeter;" vertex="1" parent="n7T-FIlEDTp39AW6R5KJ-72">
          <mxGeometry x="24" y="111" width="10" height="126" as="geometry" />
        </mxCell>
        <mxCell id="n7T-FIlEDTp39AW6R5KJ-74" value="" style="shape=curlyBracket;whiteSpace=wrap;html=1;rounded=1;strokeWidth=1;" vertex="1" parent="n7T-FIlEDTp39AW6R5KJ-72">
          <mxGeometry x="-2" y="114" width="20" height="170" as="geometry" />
        </mxCell>
        <mxCell id="n7T-FIlEDTp39AW6R5KJ-75" value="缓冲队列" style="shape=umlLifeline;perimeter=lifelinePerimeter;whiteSpace=wrap;html=1;container=1;collapsible=0;recursiveResize=0;outlineConnect=0;fillColor=#fff2cc;strokeColor=#d6b656;" vertex="1" parent="1">
          <mxGeometry x="1069" y="537" width="57" height="299" as="geometry" />
        </mxCell>
        <mxCell id="n7T-FIlEDTp39AW6R5KJ-76" value="" style="html=1;points=[];perimeter=orthogonalPerimeter;strokeWidth=1;fillColor=#e51400;strokeColor=#B20000;fontColor=#ffffff;" vertex="1" parent="n7T-FIlEDTp39AW6R5KJ-75">
          <mxGeometry x="24" y="112" width="10" height="72" as="geometry" />
        </mxCell>
        <mxCell id="n7T-FIlEDTp39AW6R5KJ-46" value="" style="html=1;verticalAlign=bottom;endArrow=open;dashed=1;endSize=8;rounded=0;" edge="1" parent="1">
          <mxGeometry relative="1" as="geometry">
            <mxPoint x="361.5" y="843" as="sourcePoint" />
            <mxPoint x="213" y="843" as="targetPoint" />
            <Array as="points">
              <mxPoint x="281.5" y="843" />
            </Array>
          </mxGeometry>
        </mxCell>
        <mxCell id="n7T-FIlEDTp39AW6R5KJ-50" value="耗时t3" style="text;html=1;strokeColor=none;fillColor=none;align=center;verticalAlign=middle;whiteSpace=wrap;rounded=0;" vertex="1" parent="1">
          <mxGeometry x="426" y="712" width="60" height="30" as="geometry" />
        </mxCell>
        <mxCell id="n7T-FIlEDTp39AW6R5KJ-86" value="" style="html=1;verticalAlign=bottom;endArrow=block;rounded=0;" edge="1" parent="1">
          <mxGeometry width="80" relative="1" as="geometry">
            <mxPoint x="203" y="818.5" as="sourcePoint" />
            <mxPoint x="303" y="819" as="targetPoint" />
          </mxGeometry>
        </mxCell>
        <mxCell id="n7T-FIlEDTp39AW6R5KJ-87" value="超时后，立即再发&lt;br&gt;第二次请求" style="edgeLabel;html=1;align=center;verticalAlign=middle;resizable=0;points=[];" vertex="1" connectable="0" parent="n7T-FIlEDTp39AW6R5KJ-86">
          <mxGeometry x="-0.1806" y="3" relative="1" as="geometry">
            <mxPoint x="26" y="-16" as="offset" />
          </mxGeometry>
        </mxCell>
      </root>
    </mxGraphModel>
  </diagram>
</mxfile>
